<?xml version="1.0" encoding="UTF-8"?>
<svg id="Layer_1" xmlns="http://www.w3.org/2000/svg" version="1.1" viewBox="0 0 56.6 54.7">
  <!-- Generator: Adobe Illustrator 29.1.0, SVG Export Plug-In . SVG Version: 2.1.0 Build 142)  -->
  <path d="M53.6,17.2c-.8,0-1.4.6-1.4,1.4s.6,1.4,1.4,1.4,1.4-.6,1.4-1.4c0-.8-.6-1.4-1.4-1.4h0ZM35.1,17.8c-.8-1-1.6-1.8-2.5-2.5h-4.2l-2,2.5h8.8ZM16,39.9c1.6,0,2.8,1.2,2.8,2.8s-.6,2-1.5,2.5c0,1.7-.5,3.2-1.9,4.2.7,1.8.4,3.4.2,5.3h18.4c0,0,.8-.2.5-1-2-5.8-1.8-8.8,1.6-14,2.3-3.6,3.4-7.9,3.1-12.1h-9.4l-1.2,1.1v1.1c0,.4-.3.9-.8.9h-4.1v1.5h6.9v-1.7c0-.4.3-.8.8-.8h2c.3-1,1.2-1.8,2.3-2,1.5-.2,2.9.9,3.1,2.4.2,1.5-.8,2.8-2.4,3.1-1.3.2-2.6-.7-3-2h-1.2v1.7c0,.4-.3.8-.8.8h-7.6c0,1.6-1.1,2.7-2.8,2.7v2c0,1-1.5,1-1.5,0v-2h-1.6v2c0,1.1-1.6,1.1-1.6,0v-2h-1.6v2c0,1-1.5,1-1.5,0v-2c-1.6,0-2.8-1.1-2.8-2.7h-2c-1,0-1-1.6,0-1.6h2v-1.5h-2c-1,0-1-1.6,0-1.6h2v-1.6h-2c-1,0-1-1.6,0-1.6h2c0-1.6,1.1-2.7,2.8-2.7v-2c0-1.1,1.5-1.1,1.5,0v2h1.6v-2c0-1.1,1.6-1.1,1.6,0v2h1.6v-2c0-.3,0-.5.3-.6l2.5-2.5c0,0,.3-.3.5-.3h1.4l3-3.8c0-.2.3-.3.6-.3h2.2c-3.6-1.7-7.8-2.1-11.7-1.4-7.3,1.2-13,6.3-14.7,13.6-.3,1.1-.3,2,.2,3,.5,1.1.4,2.1-.3,3.1-1.1,1.4-2,2.9-3,4.3-.8,1.2-1.2,1.6.4,2.3.3,0,.6.2,1,.3.6.2.9.3,1,1.3,0,.6-.3,1.2-.5,1.7,0,.3.2.4.4.6.5.3.6.9.2,1.3-.2.2-.3.2,0,.4,1.3,1,1.1,1.9.8,4.2-.4,3,3,2.7,4.8,2l5.4-2.1c1.1-.6,1.7-1.5,1.7-2.8-1.4-.2-2.6-1.3-2.6-2.8,0-1.5,1.3-2.8,2.8-2.8h0ZM21.3,24.7h-8.1c-.5,0-1,.4-1,1v8.2c0,.5.4,1,1,1h8.1c.5,0,1-.4,1-1v-8.2c0-.5-.4-1-1-1h0ZM16,41.5c-.7,0-1.2.5-1.2,1.2s.5,1.2,1.2,1.2,1.2-.5,1.2-1.2c0-.7-.5-1.2-1.2-1.2h0ZM37.6,22c-.3-.5-.5-1.1-.8-1.5-.2-.4-.4-.7-.6-1.1h-12.9l-2.1,2.1v1.6c1.7,0,2.8,1.1,2.8,2.7h1.2v-1.4c0-.2,0-.3.3-.5l1.5-1.6c.2-.2.3-.3.6-.3,0,0,10.2,0,10.2,0ZM39,26c-.3-.8-.4-1.7-.8-2.5h-10.5l-1.2,1.2v1.9c0,.4-.3.8-.8.8h-1.9v1.6h3.3v-.7c0-.3.2-.4.3-.6l1.6-1.4c.2-.2.3-.3.5-.3,0,0,9.4,0,9.4,0ZM36.4,31.6c.7,0,1.2-.7,1.1-1.3s-.7-1.2-1.4-1.1c-.6,0-1.1.7-1,1.4,0,.6.7,1.1,1.3,1h0ZM42.2,28.1c.6,0,1.2-.7,1.1-1.3,0-.7-.7-1.2-1.4-1.1-.6,0-1.1.6-1,1.3,0-.8-.3-1.6-.4-2.4.3-.3.8-.4,1.2-.4,1.5-.3,2.9.8,3.1,2.3.2,1.5-.9,2.9-2.4,3.1-.5,0-1,0-1.4-.2,0-.8,0-1.6,0-2.4,0,.7.6,1.2,1.3,1.1h0ZM53.8,4.1c.7,0,1.2-.8,1.1-1.4,0-.7-.7-1.1-1.4-1.1-.6,0-1.2.7-1.1,1.4,0,.6.7,1.1,1.4,1.1h0ZM48.4,8c.7,0,1.2-.7,1.1-1.4s-.7-1.1-1.4-1.1-1.2.7-1.1,1.4c0,.7.7,1.1,1.4,1.1h0ZM43.2,11.8c.7,0,1.2-.7,1.1-1.4,0-.7-.7-1.1-1.4-1.1s-1.2.7-1.1,1.4c0,.7.7,1.1,1.4,1.1h0ZM36.3,15.7c.7,0,1.2-.7,1.1-1.3s-.7-1.1-1.4-1.1c-.6,0-1.1.7-1,1.4,0,.6.7,1.1,1.3,1h0ZM47.6,21.3c-.8,0-1.4.7-1.4,1.5s.6,1.4,1.4,1.4,1.4-.6,1.4-1.4c0-.8-.6-1.5-1.4-1.5h0ZM20.9,10.5l3.2-4.2c.2-.2.4-.4.7-.4h2l2.9-3.6c.2-.2.3-.3.6-.3h20.6c.3-1.1,1.2-1.9,2.3-2,1.5-.2,2.9.9,3.2,2.4.2,1.6-.9,3-2.4,3.2-1.4.2-2.8-.7-3.1-2h-20.3l-1.9,2.4h16.8c.3-1,1.2-1.9,2.3-1.9,1.5-.3,2.9.8,3.1,2.4.3,1.5-.8,2.9-2.4,3.1-1.3.3-2.7-.6-3-2h-20.5l-2.3,2.9c-.6,0-1.3,0-2,0h0ZM26.3,10.8l.4-.7c.2-.2.4-.4.7-.4h12.9c.3-1,1.2-1.9,2.3-2,1.5-.3,2.9.9,3.2,2.4.2,1.5-.9,2.9-2.5,3.1-1.3.3-2.7-.6-3-2h-12.1c-.6-.2-1.3-.3-1.9-.5h0ZM35.2,15.7l-1.8-2c.3-1,1.2-1.8,2.3-2,1.5-.2,2.9.9,3.1,2.4.3,1.4-.8,2.8-2.2,3.1-.4-.6-1-1.1-1.4-1.6h0ZM37.1,17.8h13.6c.3-1.2,1.5-2.2,2.9-2.2s3,1.3,3,3-1.3,3-3,3-2.6-1-2.9-2.2h-12.5c-.3-.5-.6-1-1.1-1.6h0ZM39.6,22h5.2c.3-1.3,1.5-2.2,2.8-2.2s3,1.3,3,3-1.3,2.9-3,2.9-2.6-.9-2.8-2.2h-4.7c-.2-.5-.3-1-.5-1.5h0Z"/>
</svg>