<?xml version="1.0" encoding="UTF-8"?>
<svg id="Layer_1" xmlns="http://www.w3.org/2000/svg" version="1.1" viewBox="0 0 80 48.8">
  <!-- Generator: Adobe Illustrator 29.1.0, SVG Export Plug-In . SVG Version: 2.1.0 Build 142)  -->
  <path d="M80,24.6c-2.1-5.3-6.8-7-11.3-8.6-4.4-1.6-8.6-3.1-10.6-7.8l-.7,1c.9,1.8,2.1,3.2,3.5,4.2-.7,1.1-1.5,2.1-2.2,3.2,1.4,1,3.1,1.7,4.8,2.3.7-1,1.4-2,2.1-3,.9.4,1.9.7,2.8,1,.6.2,1.2.4,1.8.7-.6.9-1.3,1.9-1.9,2.8,1.4.5,2.8,1,4.1,1.7.6-.9,1.2-1.8,1.9-2.7,1.1.7,2.2,1.4,3.1,2.5-.6.8-1.2,1.7-1.8,2.5.7.8,1.4,1.6,1.9,2.7l-2,2.8c-.6-1-1.2-1.9-2-2.6-.7,1-1.4,2-2.1,2.9.8.7,1.5,1.5,2,2.5l-1.6,2.4c-.6-.9-1.3-1.7-2.1-2.3.6-.9,1.2-1.7,1.8-2.5-1-.9-2.1-1.5-3.3-2.1-.6.9-1.2,1.8-1.9,2.7-1.4-.6-2.9-.9-4.3-1.3.6-.9,1.3-1.9,1.9-2.8-1.6-.4-3.3-.8-4.9-1.2-.7,1-1.4,2-2.1,2.9-1.8-.4-3.6-.9-5.1-1.7.7-1.1,1.5-2.1,2.2-3.1-1.5-.9-2.9-2.1-3.8-3.8l-2.9,4.2c2.7,4.1,7.5,5.1,12.2,6,4.9,1,9.6,1.9,11.9,6.2,0,.1.2.2.4.3h0c.2,0,.3,0,.4-.2l7.9-11.3c.1-.1.1-.3,0-.5h0Z"/>
  <path d="M55.2,12.4l-2.6,3.8c.9,1.7,2.2,3,3.7,3.9.8-1.2,1.6-2.4,2.5-3.6-1.4-1-2.7-2.3-3.6-4.1h0Z"/>
  <path d="M68.2,20.4c-1.6-.5-3.1-1-4.7-1.5-.8,1.1-1.6,2.3-2.4,3.4,1.6.5,3.2.9,4.8,1.4.8-1.1,1.5-2.1,2.2-3.2h0Z"/>
  <path d="M73.3,27.3c.7-1,1.4-2,2.1-2.9-.9-.9-2-1.7-3.2-2.3-.7,1-1.4,2.1-2.1,3.1,1.2.6,2.3,1.3,3.3,2.2Z"/>
  <path d="M56.3,20.1c-.8,1.2-1.6,2.4-2.5,3.6,1.5.9,3.2,1.5,5,1.9.8-1.1,1.6-2.3,2.4-3.4-1.7-.5-3.4-1.2-4.9-2.1Z"/>
  <path d="M65.9,23.6c-.8,1.1-1.5,2.1-2.2,3.2,1.5.4,2.9.8,4.3,1.4.7-1,1.4-2.1,2.1-3.1-1.3-.6-2.7-1.1-4.2-1.5h0Z"/>
  <path d="M60.1,4.5c.3,0,.6-.1.8-.3h0c.2-.2.5-.4.6-.6.3-.4.4-.8.4-1.3s0-.3,0-.4c-.1-.6-.4-1.1-.9-1.5-.4-.3-.8-.4-1.3-.4-.7,0-1.4.3-1.9,1-.2.2-.3.5-.3.8,0,.3,0,.6,0,.9,0,.2.1.4.2.6.2.3.4.6.7.8.3.2.7.4,1,.4.2,0,.4,0,.6,0h0Z"/>
  <path d="M23,4.2c-.2.3-.5.6-.8.8-.3.2-.6.4-1,.5l30,43.2c0,0,.1.1.3.2.1,0,.2,0,.3,0l1.1-.8c.2-.1.2-.4.1-.6L23,4.2h0Z"/>
  <path d="M57.8,5c-.3-.2-.6-.5-.8-.8l-16.4,23.6,1.3,1.9,4.7-6.8,10.5-15.1s0,0,0,0l1.7-2.4c-.4,0-.7-.2-1-.5h0Z"/>
  <path d="M28.5,48.8c.1,0,.2,0,.3-.2l10.6-15.3-1.3-1.9-11.1,16c0,0,0,.2,0,.3,0,.1,0,.2.2.3l1.1.8c0,0,.2,0,.3,0h0Z"/>
  <path d="M0,24.6c0,.1,0,.3,0,.5l7.9,11.3c0,.1.2.2.4.2h0c.2,0,.3-.1.4-.3,2.4-4.2,7-5.2,11.9-6.2,4.7-.9,9.5-1.9,12.2-6l-2.9-4.2c-1,1.7-2.3,2.9-3.8,3.8.7,1.1,1.5,2.1,2.2,3.1-1.5.8-3.3,1.3-5.1,1.7-.7-1-1.4-2-2.1-2.9-1.6.4-3.3.8-4.9,1.2.6.9,1.3,1.9,1.9,2.8-1.5.3-3,.7-4.3,1.3-.6-.9-1.2-1.8-1.9-2.7-1.2.5-2.4,1.2-3.3,2.1.6.9,1.2,1.7,1.8,2.5-.8.6-1.5,1.4-2.1,2.3l-1.6-2.4c.6-1,1.2-1.8,2-2.5-.7-1-1.4-2-2.1-2.9-.8.7-1.4,1.6-2,2.6l-2-2.9c.5-1.1,1.1-1.9,1.9-2.7-.6-.8-1.2-1.7-1.8-2.5.9-1,1.9-1.8,3.1-2.5.6.9,1.2,1.8,1.9,2.7,1.3-.7,2.6-1.2,4.1-1.7-.6-.9-1.3-1.9-1.9-2.8.6-.2,1.2-.4,1.8-.7.9-.3,1.9-.7,2.8-1,.7,1,1.4,2,2.1,3,1.7-.6,3.3-1.3,4.8-2.3-.7-1.1-1.5-2.1-2.2-3.2,1.4-1.1,2.6-2.4,3.5-4.2l-.7-1c-2,4.7-6.2,6.2-10.6,7.8C6.9,17.6,2.2,19.3,0,24.6h0Z"/>
  <path d="M21.3,16.5c.8,1.2,1.6,2.4,2.5,3.6,1.5-.9,2.8-2.2,3.7-3.9l-2.6-3.8c-.9,1.8-2.1,3.1-3.6,4.1h0Z"/>
  <path d="M14.1,23.6c1.6-.5,3.2-.9,4.8-1.4-.8-1.1-1.6-2.3-2.4-3.4-1.5.6-3.1,1-4.7,1.5.8,1.1,1.5,2.1,2.2,3.2h0Z"/>
  <path d="M7.8,22c-1.2.6-2.2,1.4-3.2,2.3.7,1,1.4,2,2.1,2.9,1-.9,2.1-1.6,3.2-2.2-.7-1-1.4-2.1-2.1-3.1Z"/>
  <path d="M26.2,23.7c-.8-1.2-1.6-2.4-2.5-3.6-1.5.9-3.1,1.6-4.9,2.1.8,1.1,1.6,2.3,2.4,3.4,1.8-.5,3.5-1.1,5-1.9Z"/>
  <path d="M9.9,25.1c.7,1,1.4,2.1,2.1,3.1,1.3-.6,2.8-1,4.3-1.4-.8-1.1-1.5-2.1-2.2-3.2-1.4.4-2.9.9-4.2,1.5h0Z"/>
  <path d="M22.4,3.3c0-.2.2-.4.2-.6,0,0,0,0,0,0,0-.3,0-.6,0-.9,0-.3-.2-.6-.3-.8-.4-.6-1.1-1-1.9-1s-.9.1-1.3.4c-1,.7-1.3,2.1-.6,3.1.2.2.4.4.6.6h0c.2.1.5.3.8.3h0c.2,0,.4,0,.6,0,.4,0,.7-.2,1-.4s.6-.5.7-.8h0Z"/>
</svg>