<?xml version="1.0" encoding="UTF-8"?>
<svg id="Layer_1" xmlns="http://www.w3.org/2000/svg" version="1.1" viewBox="0 0 5273.3 2614.3">
  <!-- Generator: Adobe Illustrator 29.1.0, SVG Export Plug-In . SVG Version: 2.1.0 Build 142)  -->
  <path d="M3890.8,232.5c197.8,17.3,347.5,209.3,508.8,414.7,199.7,255.3,419.5,535.7,771.8,413.7h0c40.3-13.4,83.5,7.7,97.9,48,7.7,24,3.8,49-8.6,68.2l-542.4,939.8h0c-10.6,18.2-26.9,29.8-45.1,35.5-452.1,153.6-706.5-169.9-938.8-466.5-151.7-193-290.9-371.5-469.4-342.7l607.7-1052.1v-1.9c8.6-18.2,14.4-37.4,19.2-56.6h-1Z"/>
  <path d="M3591.3,5.9c44.2-11.5,94.1-6.7,137.3,18.2h0c43.2,25,73,65.3,84.5,110.4,11.5,44.2,6.7,94.1-18.2,137.3h0l-1300.7,2252.1h0c-25,43.2-65.3,72-110.4,84.5-44.2,11.5-94.1,6.7-137.3-18.2h0c-43.2-25-73-65.3-84.5-110.4-11.5-44.2-6.7-94.1,18.2-137.3h0L3480.9,90.4h0c25-43.2,65.3-72,110.4-84.5Z"/>
  <path d="M1382.4,232.5c-196.8,17.3-347.5,209.3-508.8,414.7-200.6,255.3-419.5,535.7-771.8,413.7h0c-40.3-13.4-83.5,7.7-97.9,48-7.7,24-3.8,49,8.6,68.2l542.4,939.8h0c10.6,18.2,26.9,29.8,45.1,35.5,452.1,153.6,706.5-169.9,938.8-466.5,151.7-193,290.9-371.5,469.4-342.7L1400.7,291v-1.9c-8.6-18.2-14.4-37.4-19.2-56.6h1Z"/>
  <path d="M1682,5.9c-44.2-11.5-94.1-6.7-137.3,18.2h0c-43.2,25-73,65.3-84.5,110.4-11.5,44.2-6.7,94.1,18.2,137.3h0l1300.7,2252.1h0c25,43.2,65.3,72,110.4,84.5,44.2,11.5,94.1,6.7,137.3-18.2h0c43.2-25,73-65.3,84.5-110.4,11.5-44.2,6.7-94.1-18.2-137.3h0L1792.3,90.4h0c-25-43.2-65.3-72-110.4-84.5Z"/>
</svg>