<?xml version="1.0" encoding="UTF-8"?>
<svg id="Layer_1" xmlns="http://www.w3.org/2000/svg" version="1.1" viewBox="0 0 810.2 823.1">
  <!-- Generator: Adobe Illustrator 29.1.0, SVG Export Plug-In . SVG Version: 2.1.0 Build 142)  -->
  <path d="M303.9,17.1c-8.3,5.3-16.3,11.3-24.2,17.7-6.9,5.6-13.5,11.7-20,18.2-26.9,26.7-50.9,60.3-70.7,99.9-14-9.1-27.4-19.2-40.1-30.1-2.6-2.2-5.1-4.4-7.6-6.6s-5-4.5-7.4-6.8c49-44.5,107.2-75.9,170.1-92.3Z"/>
  <path d="M176.2,642.7c-17.2,11-33.6,23.2-49.1,36.6-2.5,2.2-5,4.4-7.5,6.6-2.5,2.2-4.9,4.5-7.3,6.8-23.6-24.8-44-52.5-60.8-82.3-.8-1.4-18-32.9-27.1-59.6-15.1-44.2-18.4-67.6-18.8-70.6-3.2-18.9-5.1-38.3-5.6-57.6h131.6c1.3,78.5,16.7,154.3,44.6,220.2Z"/>
  <path d="M303.9,805.9c-62.9-16.4-121.1-47.8-170.1-92.3,2.4-2.3,4.9-4.6,7.4-6.8,2.5-2.2,5-4.4,7.6-6.6,12.8-10.8,26.2-20.9,40.1-30,19.8,39.6,43.8,73.2,70.7,99.9,6.5,6.5,13.2,12.5,20.1,18.2,7.9,6.5,15.9,12.4,24.2,17.7Z"/>
  <path d="M176.2,180.4c-27,63.5-42.2,136.5-44.4,212.1H.3c2.3-49.8,13.4-98,33.3-143.6,19.1-44,45.6-83.8,78.7-118.5,2.4,2.3,4.9,4.6,7.4,6.8,2.5,2.2,5,4.4,7.5,6.6,15.5,13.4,31.9,25.6,49.1,36.6Z"/>
  <path d="M764.2,368.5c-20.1,0-37.2,12.9-43.5,30.9l-160.2-1.7c-.1-1.6-.3-3.1-.5-4.7l24-19.2c10.9-8.7,13.8-24.3,6.8-36.3l-26.6-46.2c-1.2-2-2.5-3.8-4-5.4l48.4-68.8h58.9c6.2,18,23.4,31,43.5,31s46-20.6,46-46-20.6-46-46-46-37.2,13-43.5,31h-74.5l-65.1,92.6-27.1,10.6c-9.9-7.5-20.7-13.7-32.1-18.6l-4.6-30.3c-2.1-14-13.9-24.1-28-24.1h-18.5v-22.1h71.6l56-104.2c2.9.6,5.9.9,9,.9,25.4,0,46-20.6,46-46S579.4,0,554.1,0s-46,20.6-46,46,4.2,21.9,11.1,29.9l-48,89.4h-53.7V12.1c-.6,0-1.2,0-1.8,0h-.6c-8,.1-16,.8-24,2.1-16.1,2.6-31.9,7.6-47.2,14.8-50.8,23.9-96.1,72.3-129.3,139.4,1.1.6,2.2,1.2,3.3,1.8,51.6,27.9,109.3,44,168.1,47.2h-3.3c-14.1,0-25.9,10.1-28,24.1l-.5,3.2c-52.7-6.6-103.9-22.9-150.5-48-.5-.3-1-.5-1.4-.8-24.4,59-38.3,126.6-40.4,196.7h96.2l.7.5c-.5,4.5-.9,9.2-1,13.7,0,1.5,0,3.1,0,4.8,0,3.6.1,7.3.4,10.9h-96.3c1.3,73,15.2,143.4,40.6,204.7.5-.3,1-.5,1.4-.8,46.6-25.2,97.8-41.4,150.5-48l.5,3.3c2.1,13.9,13.9,24.1,28,24.1h.8c-57.9,3.5-114.7,19.6-165.5,47-1.1.6-2.2,1.2-3.3,1.8,33.1,67,78.4,115.4,129.2,139.4,15.4,7.2,31.2,12.2,47.3,14.9,7.9,1.3,15.9,2,23.9,2.1h.7c.6,0,1.1,0,1.7,0v-157.3h53.5l48.2,93.3c-7,8.1-11.2,18.6-11.2,30,0,25.4,20.6,46,46,46s46-20.6,46-46-20.6-46-46-46-6,.3-8.9.9l-55.9-108.2h-71.8v-17.9h18.5c14.1,0,25.9-10.1,28-24.1l4.6-30.3c11.4-4.8,22.2-11.1,32.1-18.6l28.6,11.2c.1,0,.3.1.4.2l63.1,91.9h74.6c6.2,18,23.4,31,43.5,31s46-20.6,46-46-20.6-46-46-46-37.2,13-43.5,31h-58.8l-47.8-69.6c1.2-1.4,2.4-3,3.3-4.7l26.6-46.1c7.1-12.2,4.2-27.5-6.8-36.3l-24-19.2c0-.8.2-1.6.3-2.4l160.4,1.7c6.2,18.1,23.4,31.1,43.5,31.1s46-20.6,46-46-20.6-46-46-46ZM530.1,396c.7,5.2,1,10.5,1,15.7s-.3,10.5-1,15.7c-1.2,9.7,2.7,19.6,10.4,25.7l23.6,18.9-24.6,42.6-.6,1-.6-.2-27.6-10.8c-9.2-3.6-19.7-2.1-27.5,3.9-8.3,6.4-17.4,11.6-27,15.6-9.1,3.8-15.7,12.2-17.2,21.9l-4.5,29.9h-50.4c0,0,0-.6,0-.6l-4.5-29.3c-1.5-9.7-8-18.1-17.1-21.9-9.6-4-18.7-9.3-27-15.7-7.8-6-18.4-7.5-27.5-3.9l-27.6,10.8-.6.2-25.2-43.6.5-.4,23.1-18.5c7.6-6.1,11.6-16,10.4-25.8-.7-5.1-1-10.4-1-15.6s0-2.6,0-3.8h0c.1-4.1.4-8,.9-11.9,1.2-9.7-2.7-19.6-10.4-25.8l-23.1-18.5-.5-.4,25.2-43.6.6.2,27.6,10.8c9.2,3.6,19.7,2.1,27.5-3.9,8.3-6.4,17.4-11.6,27-15.6,9.1-3.8,15.7-12.2,17.1-21.9l4.5-29.3v-.6h50.5l4.5,29.9c1.5,9.7,8,18.1,17.1,21.9,9.6,4,18.7,9.3,27,15.6,7.8,6,18.4,7.5,27.5,3.9l28.2-11,25.2,43.6-23.6,18.9c-7.7,6.1-11.6,16-10.4,25.7Z"/>
  <path d="M471,420.6c0,34-27.6,61.7-61.7,61.7s-61.7-27.6-61.7-61.7,27.6-61.7,61.7-61.7c34,0,61.7,27.6,61.7,61.7Z"/>
</svg>