<?xml version="1.0" encoding="UTF-8"?>
<svg id="Layer_1" xmlns="http://www.w3.org/2000/svg" version="1.1" viewBox="0 0 81.3 81.3">
  <!-- Generator: Adobe Illustrator 29.1.0, SVG Export Plug-In . SVG Version: 2.1.0 Build 142)  -->
  <path d="M45.6,43.8H3.1c-1.7,0-3.1-1.4-3.1-3.1s1.4-3.1,3.1-3.1h42.5l-11.3-11.3c-1.1-1.2-1.1-3.2,0-4.3,1.2-1.2,3.1-1.2,4.3,0l16.7,16.7h0c1.2,1.2,1.2,3.2,0,4.4l-16.7,16.7h0c-1.2,1.2-3.2,1.2-4.4,0s-1.2-3.2,0-4.4l11.3-11.3ZM69.3,11.9C61.7,4.3,51.4,0,40.6,0S19.5,4.3,11.9,11.9c-.6.6-.9,1.4-.9,2.2s.3,1.6.9,2.2c1.2,1.2,3.2,1.2,4.4,0C25,7.7,37.7,4.3,49.5,7.4c11.9,3.2,21.1,12.4,24.3,24.3,3.2,11.9-.2,24.5-8.9,33.2-6.4,6.5-15.2,10.1-24.3,10.1s-17.9-3.6-24.3-10.1c-1.2-1.2-3.2-1.2-4.4,0-.6.6-.9,1.4-.9,2.2s.3,1.6.9,2.2c7.6,7.6,17.9,11.9,28.7,11.9s21.1-4.3,28.7-11.9c7.6-7.6,11.9-17.9,11.9-28.7s-4.3-21.1-11.9-28.7h0Z"/>
</svg>