<?xml version="1.0" encoding="UTF-8"?>
<svg id="Layer_1" xmlns="http://www.w3.org/2000/svg" version="1.1" viewBox="0 0 90.4 90.4">
  <!-- Generator: Adobe Illustrator 29.1.0, SVG Export Plug-In . SVG Version: 2.1.0 Build 142)  -->
  <defs>
    <style>
      .st0 {
        fill-rule: evenodd;
      }
    </style>
  </defs>
  <path d="M11,28l-4.7,2.7C13.2,12.1,32.4,1,51.9,4.2l1.1-4.2,5.8,10-10,5.8,1.2-4.4c-15.5-2.2-30.6,6.5-36.5,21l-2.6-4.4ZM57.9,13.5c2.9,1.2,5.6,2.7,8,4.6,1.4-2.2,3.3-3.9,5.6-5-3.5-2.9-7.5-5.2-11.9-6.8l2.7,4.7-4.4,2.6ZM90.4,53.1l-4.2-1.1c.8-4.6.7-9.1,0-13.5-2.1,1.3-4.6,2.2-7.1,2.3.4,3,.4,6.1,0,9.3l-4.4-1.2,5.8,10,10-5.8ZM76.8,57.9c-5.8,14.5-20.9,23.3-36.5,21l1.2-4.4-10,5.8,5.8,10,1.1-4.2c19.6,3.2,38.8-7.9,45.7-26.5l-4.7,2.7-2.6-4.4ZM32.4,76.8c-2.9-1.2-5.6-2.7-8-4.6-1.4,2.2-3.3,3.9-5.6,5,3.5,2.8,7.5,5.2,11.9,6.8l-2.7-4.7,4.4-2.6ZM0,37.3l4.2,1.1c-.8,4.6-.7,9.1,0,13.5,2.1-1.3,4.6-2.2,7.1-2.3-.4-3-.4-6.1,0-9.3l4.4,1.2-5.8-10L0,37.3Z"/>
  <path class="st0" d="M45.2,68.8h-3.9l-.9-4.7-5-2.1-4,2.7-1.8-1.8,11.6-6.7c1.3.5,2.7.8,4.2.8,5.8,0,10.7-4.3,11.6-9.9l10.6-6.1,1.4.3v7.9l-4.7.9-2.1,5,2.7,4-5.6,5.6-4-2.7-5,2.1-.9,4.7h-3.9ZM23,49.4l-1.4-.3v-7.9l4.7-.9,2.1-5-2.7-4,5.6-5.6,4,2.7,5-2.1.9-4.7h3.9s3.9,0,3.9,0l.9,4.7,5,2.1,4-2.7,1.8,1.8-11.6,6.7c-1.3-.5-2.7-.8-4.2-.8-5.8,0-10.7,4.3-11.6,9.9l-10.6,6.1ZM71.1,35.8c1.2.9,2.5,1.5,4.1,1.9,6.5,1.7,13.1-2.1,14.8-8.6.2-.9.4-1.8.4-2.7l-8.9,5.2-6.4-3.7v-7.4l8.9-5.2c-.8-.4-1.6-.7-2.5-1-6.5-1.7-13.1,2.1-14.8,8.6-.4,1.5-.5,3-.3,4.5-15.7,9-31.3,18.1-47,27.1-1.2-.9-2.5-1.5-4.1-1.9-6.4-1.7-13.1,2.1-14.8,8.6-.2.9-.4,1.8-.4,2.7l8.9-5.2,6.4,3.7v7.4l-8.9,5.2c.8.4,1.6.7,2.5,1,6.5,1.7,13.1-2.1,14.8-8.6.4-1.5.5-3,.3-4.5,15.7-9,31.3-18.1,47-27.1Z"/>
</svg>