<?xml version="1.0" encoding="UTF-8"?>
<svg id="Layer_1" xmlns="http://www.w3.org/2000/svg" version="1.1" viewBox="0 0 55 55">
  <!-- Generator: Adobe Illustrator 29.1.0, SVG Export Plug-In . SVG Version: 2.1.0 Build 142)  -->
  <defs>
    <style>
      .st0 {
        fill-rule: evenodd;
      }
    </style>
  </defs>
  <path class="st0" d="M21,28.5h0c-.6-.6-.6-1.6,0-2.2s1.6-.6,2.2,0l2.6,2.6,6.2-6.2h0c.6-.6,1.6-.6,2.2,0s.6,1.6,0,2.2l-7.3,7.3h0c-.3.3-.7.5-1.1.5s-.8-.2-1.1-.5l-3.7-3.7h0ZM27.6,13.4c-5.6,0-10.7,3.4-12.9,8.6-2.2,5.2-1,11.2,3,15.2s10,5.2,15.2,3,8.6-7.2,8.6-12.9-6.3-14-14-14h.1ZM27.6,16.5c-4.4,0-8.3,2.6-10,6.7s-.8,8.7,2.3,11.8,7.8,4,11.8,2.3c4.1-1.7,6.7-5.6,6.7-10s-1.1-5.6-3.2-7.7-4.8-3.2-7.7-3.2h0ZM51.9,30v-5.3h-4.2c-.8,0-1.4-.6-1.5-1.4-.5-2.3-1.4-4.4-2.7-6.4-.4-.6-.3-1.4.2-2l2.9-2.9-3.7-3.7-2.9,2.9c-.5.5-1.4.6-2,.2-1.8-1.2-4.3-2.2-6.4-2.6h0c-.7-.1-1.2-.8-1.2-1.5h0V3.1h-5.3v4.2c0,.8-.6,1.4-1.4,1.5-2.3.5-4.4,1.4-6.4,2.7-.6.4-1.4.3-2-.2l-2.9-2.9-3.7,3.7,2.9,2.9c.5.5.6,1.4.2,2-1.2,1.8-2.2,4.3-2.6,6.4h0c0,.7-.8,1.2-1.5,1.2H3.5v5.3h4.2c.8,0,1.4.6,1.5,1.4.5,2.3,1.4,4.4,2.7,6.4.4.6.3,1.4-.2,2l-2.9,2.9,3.7,3.7,2.9-2.9h0c.5-.5,1.4-.6,2-.2,1.8,1.2,4.3,2.2,6.4,2.6h0c.7,0,1.2.8,1.2,1.5h0v4.2h5.3v-4.2c0-.8.6-1.4,1.3-1.6,2.3-.5,4.4-1.4,6.4-2.7.6-.4,1.4-.3,2,.2l2.9,2.9,3.7-3.7-2.9-2.9h0c-.5-.5-.6-1.4-.2-2,1.2-1.8,2.2-4.3,2.6-6.4,0-.7.8-1.2,1.5-1.2h4.3ZM55,23.2h0c0-.4-.2-.8-.5-1.1s-.7-.5-1.1-.5h-4.5c-.5-1.8-1.2-3.6-2.2-5.2l3.2-3.2c.6-.6.6-1.6,0-2.2l-6-6c-.6-.6-1.6-.6-2.2,0l-3.2,3.2c-1.6-.9-3.4-1.7-5.2-2.2V1.6c0-.4-.2-.8-.5-1.1s-.7-.5-1.1-.5h-8.4c-.9,0-1.6.7-1.6,1.6v4.5c-1.8.5-3.6,1.2-5.2,2.2l-3.2-3.2c-.6-.6-1.6-.6-2.2,0l-6,6c-.6.6-.6,1.6,0,2.2l3.2,3.2h0c-.9,1.6-1.7,3.4-2.2,5.2H1.6c-.9,0-1.6.7-1.6,1.6v8.4c0,.4.2.8.5,1.1s.7.5,1.1.5h4.5c.5,1.8,1.2,3.6,2.2,5.2l-3.2,3.2c-.6.6-.6,1.6,0,2.2l6,6c.6.6,1.6.6,2.2,0l3.2-3.2c1.6.9,3.4,1.7,5.2,2.2v4.5c0,.4.2.8.5,1.1s.7.5,1.1.5h8.4c.4,0,.8-.2,1.1-.5.3-.3.5-.7.5-1.1v-4.5c1.8-.5,3.6-1.2,5.2-2.2l3.2,3.2h0c.6.6,1.6.6,2.2,0l6-6c.6-.6.6-1.6,0-2.2l-3.2-3.2c.9-1.6,1.7-3.4,2.2-5.2h4.5c.4,0,.8-.2,1.1-.5s.5-.7.5-1.1v-8.4h0Z"/>
</svg>