<?xml version="1.0" encoding="UTF-8"?>
<svg id="Layer_1" xmlns="http://www.w3.org/2000/svg" version="1.1" viewBox="0 0 92.3 95">
  <!-- Generator: Adobe Illustrator 29.1.0, SVG Export Plug-In . SVG Version: 2.1.0 Build 142)  -->
  <path d="M82.5,8h-2.6v5.4c0,3.8-3.1,6.9-6.9,6.9h-5.4c-3.8,0-6.9-3.1-6.9-6.9v-5.4h-14.6v5.4c0,3.8-3.1,6.9-6.9,6.9h-5.4c-3.8,0-6.9-3.1-6.9-6.9v-5.4h-2.7c-5.5,0-9.9,4.5-9.9,9.9v17.9c2.4.8,4.5,2.5,5.7,4.8l.5.9v-11.8h65.7v41.2c0,1.7-1.4,3.1-3.1,3.1h-30.4l1.5.8c2.2,1.1,3.9,3.1,4.7,5.4h24.1c5.1,0,9.3-4.2,9.3-9.3V17.9c0-5.4-4.3-9.9-9.8-9.9Z"/>
  <path d="M38.8,49.1c1.2,0,2.1-1,2.1-2.1v-8.6c0-1.2-1-2.1-2.1-2.1h-9.4c-1.2,0-2.1,1-2.1,2.1v8.6c0,1.2,1,2.1,2.1,2.1h9.4Z"/>
  <path d="M77.3,49.1c1.2,0,2.1-1,2.1-2.1v-8.6c0-1.2-1-2.1-2.1-2.1h-9.4c-1.2,0-2.1,1-2.1,2.1v8.6c0,1.2,1,2.1,2.1,2.1h9.4Z"/>
  <path d="M48.6,49.1h9.4c1.2,0,2.1-1,2.1-2.1v-8.6c0-1.2-1-2.1-2.1-2.1h-9.4c-1.2,0-2.1,1-2.1,2.1v8.6c0,1.1,1,2.1,2.1,2.1Z"/>
  <path d="M27.2,65.6c0,1.2,1,2.1,2.1,2.1h9.4c1.2,0,2.1-1,2.1-2.1v-8.6c0-1.2-1-2.1-2.1-2.1h-9.4c-1.2,0-2.1,1-2.1,2.1,0,0,0,8.6,0,8.6Z"/>
  <path d="M65.8,65.6c0,1.2,1,2.1,2.1,2.1h9.4c1.2,0,2.1-1,2.1-2.1v-8.6c0-1.2-1-2.1-2.1-2.1h-9.4c-1.2,0-2.1,1-2.1,2.1v8.6Z"/>
  <path d="M46.5,65.6c0,1.2,1,2.1,2.1,2.1h9.4c1.2,0,2.1-1,2.1-2.1v-8.6c0-1.2-1-2.1-2.1-2.1h-9.4c-1.2,0-2.1,1-2.1,2.1,0,0,0,8.6,0,8.6Z"/>
  <path d="M33.8,16h5.4c1.4,0,2.6-1.2,2.6-2.6V2.6c0-1.4-1.2-2.6-2.6-2.6h-5.4c-1.4,0-2.6,1.2-2.6,2.6v10.9c0,1.4,1.1,2.5,2.6,2.5Z"/>
  <path d="M67.5,16h5.4c1.4,0,2.6-1.2,2.6-2.6V2.6c0-1.4-1.2-2.6-2.6-2.6h-5.4c-1.4,0-2.6,1.2-2.6,2.6v10.9c0,1.4,1.2,2.5,2.6,2.5Z"/>
  <path d="M51.4,80.3l-10.9-5.6c-1.5-.8-3.4-.4-4.5,1l-4,5.1c-3.9-2.1-6.9-4.1-10.3-7.5-3.7-3.7-5.6-6.7-7.6-10.5l5.1-4c1.4-1.1,1.8-3,1-4.5l-5.7-10.8c-1-1.9-3.4-2.5-5.2-1.3l-6.9,4.6C.8,47.9,0,49.7,0,51.7s.4,4.5.8,6.2c2,7.8,6.9,15.8,13.7,22.6,6.8,6.8,14.8,11.7,22.6,13.7,1.7.5,4.2.7,6.2.8,2,0,3.8-.8,4.9-2.5l4.5-7c1.2-1.8.6-4.2-1.3-5.2Z"/>
</svg>