<?xml version="1.0" encoding="UTF-8"?>
<svg id="Layer_1" xmlns="http://www.w3.org/2000/svg" version="1.1" viewBox="0 0 90 87.9">
  <!-- Generator: Adobe Illustrator 29.1.0, SVG Export Plug-In . SVG Version: 2.1.0 Build 142)  -->
  <path d="M68.8,75.2s-1,4.7,2.8,8.5c8.7,8.7,18.4,0,18.4,0,0,0-2.7,0-4.2-1.4s-.4-6-3.5-9.2c-3.3-3.2-9.3-2.2-9.3-2.2l-4.2,4.3Z"/>
  <path d="M39.2,32.7C23.5,18.6,2.2.3.2,2.4c-2,2.1,16.2,23.3,30.3,39l8.7-8.7Z"/>
  <path d="M56.7,49l-9.9,9.9c5.8,5.8,16.7,15.9,19.8,12.7l1.4-1.4,1.4-1.4c3.2-3.1-6.9-13.9-12.7-19.8Z"/>
  <rect x="5.5" y="38.2" width="74" height="16" transform="translate(-20.2 43.6) rotate(-45)"/>
  <polygon points="10.1 84.4 4.4 78.7 8 69.5 19.3 80.8 10.1 84.4"/>
  <polygon points=".9 87.9 2.3 82.3 6.5 86.5 .9 87.9"/>
  <rect x="70.9" y="7.8" width="4" height="16" transform="translate(10.2 56.2) rotate(-45)"/>
  <path d="M87.2,4.5l-2.8-2.8c-2.3-2.3-6.1-2.3-8.5,0l-4.3,4.2,11.3,11.3,4.2-4.2c2.4-2.4,2.4-6.2,0-8.5Z"/>
</svg>