<?xml version="1.0" encoding="UTF-8"?>
<svg id="Layer_1" xmlns="http://www.w3.org/2000/svg" version="1.1" viewBox="0 0 75 83.3">
  <!-- Generator: Adobe Illustrator 29.1.0, SVG Export Plug-In . SVG Version: 2.1.0 Build 142)  -->
  <path d="M37.5,50c13.8,0,25-11.2,25-25S51.3,0,37.5,0,12.5,11.2,12.5,25s11.2,25,25,25ZM37.5,8.3c9.2,0,16.7,7.5,16.7,16.7s-7.5,16.7-16.7,16.7-16.7-7.5-16.7-16.7,7.5-16.7,16.7-16.7ZM75,79.2v4.2h-8.3v-4.2c0-9.2-7.5-16.7-16.7-16.7h-25c-9.2,0-16.7,7.5-16.7,16.7v4.2H0v-4.2c0-13.8,11.2-25,25-25h25c13.8,0,25,11.2,25,25Z"/>
</svg>