<?xml version="1.0" encoding="UTF-8"?>
<svg id="Layer_1" xmlns="http://www.w3.org/2000/svg" version="1.1" viewBox="0 0 69 97.5">
  <!-- Generator: Adobe Illustrator 29.1.0, SVG Export Plug-In . SVG Version: 2.1.0 Build 142)  -->
  <path d="M21,96.9c-7.1-2.9-11.8-6.9-15.4-12.3-9.6-14.4-6.7-33.1,7.2-46,4.2-3.9,8.8-7.6,13-11.6,6.8-6.4,9.5-14.3,7.9-23.6-.1-.7-.1-1.5-.2-3.3,19.1,15.2,20.4,34.5,16.9,55.7,6.3-3.1,7.9-6.7,9.5-20.5,13.6,19.5,14,54.2-12.4,62.3,6.7-12.1,5.4-22.5-5.3-31.5-5.8-4.7-11-9.6-9.5-18.4-10.3,7.7-10.6,18.3-9.1,29.7-4.3-2.6-4.9-6.2-5.6-10-4.1,9.9-5.6,19.7,2.9,29.6h0Z"/>
</svg>